<svg version="1.1" id="Layer_1" xmlns="http://www.w3.org/2000/svg" xmlns:xlink="http://www.w3.org/1999/xlink" x="0rem" y="0rem"
	 width="100%" viewBox="0 0 1024 768" enable-background="new 0 0 1024 768" xml:space="preserve">
<path fill="#000000" opacity="1.000000" stroke="none" 
	d="
M839.945312,457.210144 
	C798.635315,450.690979 761.245605,433.707642 723.278259,418.469910 
	C721.276855,417.666656 719.282715,416.743011 717.473572,415.581940 
	C711.981262,412.057098 709.610046,406.506012 711.099792,401.110687 
	C712.688049,395.358307 716.958496,392.054962 723.940918,392.179626 
	C726.966980,392.233673 728.276001,391.527313 729.526611,388.786804 
	C731.815918,383.770264 736.219788,382.205200 741.596191,383.778381 
	C744.347656,384.583466 746.926575,385.769104 749.133667,387.584229 
	C759.471313,396.085632 772.030701,400.429230 783.862976,406.101990 
	C790.663513,409.362396 798.208862,406.635193 805.420105,407.586670 
	C802.414307,406.835815 799.399109,406.120300 796.404541,405.327026 
	C789.359375,403.460815 785.081604,397.605530 785.896179,391.003571 
	C786.717041,384.350983 791.627319,379.571106 799.005798,379.841217 
	C818.271118,380.546417 837.042480,384.059113 854.645935,392.257843 
	C861.519592,395.459167 867.462158,400.279541 871.835205,406.462616 
	C875.519348,411.671722 880.245300,413.086945 886.073120,412.614319 
	C887.398254,412.506836 888.725769,412.372864 890.036377,412.155365 
	C893.093079,411.648071 896.589111,410.951141 897.011536,415.272125 
	C897.391052,419.154449 894.212219,420.095612 890.975525,420.368652 
	C888.651855,420.564667 886.328796,420.772491 884.002930,420.938477 
	C882.458679,421.048645 881.305603,421.417267 880.324402,422.944275 
	C877.147095,427.888794 874.153503,427.643463 871.472961,422.233673 
	C864.634399,408.432159 853.732666,399.657867 839.017090,395.343719 
	C831.492126,393.137634 823.852478,391.526337 816.128723,390.293854 
	C811.367981,389.534149 806.580261,388.824799 801.777039,388.495087 
	C799.003418,388.304688 795.500671,388.428314 794.973450,392.028809 
	C794.430542,395.736084 797.605652,396.311707 800.516846,397.013336 
	C810.147644,399.334503 819.251526,402.929352 827.261353,408.925537 
	C829.286316,410.441376 831.526306,412.029205 830.648010,414.990540 
	C829.699524,418.188934 826.900818,418.436493 824.120056,418.280853 
	C805.506287,417.239227 786.811340,416.895721 768.318481,414.785309 
	C759.940918,413.829254 751.983826,409.295654 743.801025,406.486938 
	C738.921570,404.812073 734.004761,403.226868 729.041870,401.823975 
	C727.159424,401.291931 725.103210,401.276062 723.121155,401.225830 
	C721.483826,401.184326 720.225037,402.081024 719.653259,403.629944 
	C719.017944,405.350952 720.117737,406.498749 721.302551,407.466309 
	C723.930847,409.612549 727.146545,410.672852 730.226929,411.871674 
	C754.902222,421.474762 779.421753,431.532104 804.392639,440.300873 
	C819.423340,445.579041 835.552612,447.102020 851.068848,450.807861 
	C863.293518,453.727600 875.780029,453.972290 888.131104,455.547791 
	C891.034790,455.918182 893.568176,456.495789 893.368408,460.120239 
	C893.147522,464.128662 890.122620,464.327667 887.187012,464.141388 
	C871.394287,463.139252 855.752563,461.058807 839.945312,457.210144 
M740.675354,395.753632 
	C741.946655,396.060181 743.199646,397.080780 744.799805,396.091858 
	C741.193237,393.100555 741.193237,393.100555 737.837280,393.456573 
	C737.671204,395.114685 739.111206,395.098663 740.675354,395.753632 
z"/>
<path fill="#000000" opacity="1.000000" stroke="none" 
	d="
M728.161682,346.753448 
	C727.756836,341.636871 730.139343,339.889587 734.658325,339.642120 
	C747.188599,338.955963 757.916199,342.780426 766.807190,351.684235 
	C767.835144,352.713745 768.985046,353.621521 770.906494,355.316010 
	C768.795288,345.132019 769.583557,336.230499 773.547424,327.672913 
	C778.442932,317.104065 786.290222,309.925873 797.475586,306.533325 
	C805.228149,304.181976 807.800842,305.843994 809.038025,313.841583 
	C811.777527,331.551331 800.653564,350.394379 783.732239,356.383423 
	C780.905396,357.383911 779.371704,358.717957 778.884338,361.822205 
	C777.782410,368.840607 777.987366,375.729614 779.780701,382.587555 
	C780.201660,384.197632 780.681519,385.795990 781.016724,387.423981 
	C781.575317,390.136749 780.472778,392.066132 777.842346,392.806854 
	C775.323669,393.516144 773.748718,392.093079 772.733887,389.909393 
	C772.663818,389.758545 772.564697,389.603699 772.553528,389.445465 
	C771.983826,381.348938 766.743896,379.979462 759.679871,378.556702 
	C742.695801,375.135864 731.672607,364.676544 728.161682,346.753448 
M766.560730,365.893982 
	C760.594849,354.703156 747.204956,346.688538 738.479797,349.324219 
	C738.550354,350.059235 738.488831,350.892548 738.722717,351.632477 
	C741.652222,360.899536 754.912659,370.421875 764.873535,370.517334 
	C768.426270,370.551392 767.586060,368.579987 766.560730,365.893982 
M784.641541,330.910767 
	C787.279541,328.576691 790.134094,325.470947 793.555786,329.055328 
	C796.846313,332.502319 793.506348,335.032104 791.270447,337.439697 
	C789.496521,339.349945 787.600891,341.171173 786.975708,344.096619 
	C795.879028,339.417084 802.180786,325.640289 799.960327,316.162750 
	C791.785706,317.297943 783.984497,324.679474 781.690674,333.485382 
	C783.097839,333.430023 783.309326,331.996155 784.641541,330.910767 
z"/>
<path fill="#000000" opacity="1.000000" stroke="none" 
	d="
M326.479309,363.954865 
	C325.042694,359.436737 322.090851,357.898407 317.931915,358.057892 
	C313.450653,358.229736 310.976471,360.871735 309.521179,364.729126 
	C307.700104,369.556122 308.579590,374.622070 308.416656,379.591614 
	C308.340271,381.921814 308.403259,384.256470 308.397278,386.589111 
	C308.377838,394.180420 305.855927,396.019775 298.358490,394.221344 
	C295.575043,393.553650 295.763824,391.556458 295.748871,389.586914 
	C295.693146,382.256195 295.868591,374.919464 295.632172,367.595490 
	C295.392273,360.161682 290.764160,356.490173 284.167725,358.422791 
	C279.330688,359.839966 277.560425,363.866364 277.371277,368.432556 
	C277.102600,374.920105 277.289764,381.425873 277.247498,387.923645 
	C277.206421,394.239197 277.054596,393.984558 270.804504,394.430237 
	C265.370209,394.817688 264.461945,392.420380 264.575317,387.713654 
	C264.844055,376.556885 264.577789,365.388123 264.714264,354.226501 
	C264.743042,351.872833 263.327362,348.250732 267.473480,347.903320 
	C271.022095,347.606018 275.469269,346.040436 276.760254,352.051453 
	C286.801392,344.575226 296.326935,344.702881 305.507507,353.472534 
	C311.312347,348.184723 317.844513,345.548126 325.689240,347.204071 
	C332.765289,348.697723 337.415894,352.877777 338.977692,359.856018 
	C341.295135,370.210144 339.883423,380.765259 339.978943,391.235443 
	C339.996765,393.184601 338.795807,394.261261 336.773926,394.267883 
	C334.774994,394.274414 332.773529,394.224884 330.777649,394.307770 
	C327.110809,394.459991 326.919220,392.029846 326.895294,389.332733 
	C326.821533,381.007080 326.697205,372.681885 326.479309,363.954865 
z"/>
<path fill="#000000" opacity="1.000000" stroke="none" 
	d="
M177.549866,390.395599 
	C170.320114,379.431305 175.292694,368.861603 188.242203,366.845825 
	C193.492218,366.028595 198.786896,365.912201 204.337494,366.276154 
	C205.454437,362.482056 204.098557,360.192261 201.129776,358.640869 
	C196.962173,356.463013 192.358963,356.572388 189.797928,360.276489 
	C186.748535,364.686920 182.987381,364.217255 178.866913,364.145081 
	C175.451141,364.085236 175.014450,362.195770 175.898087,359.482666 
	C176.205353,358.539307 176.625244,357.616455 177.110641,356.749756 
	C181.584763,348.761230 192.768082,344.858856 203.512451,347.511108 
	C213.086334,349.874420 217.904907,355.836945 218.207977,366.197998 
	C218.417068,373.345917 218.366776,380.507294 218.197815,387.657135 
	C218.141647,390.034424 219.540543,393.680817 215.532684,394.081085 
	C211.864349,394.447510 207.223282,396.087708 205.775314,389.827362 
	C196.442993,396.861176 187.171997,397.880219 177.549866,390.395599 
M198.554031,384.154266 
	C201.832565,382.408630 203.561996,379.638153 204.412201,375.868408 
	C200.656815,374.596069 197.196350,375.205170 193.800186,375.260376 
	C190.500549,375.313934 187.836411,376.609070 187.640228,380.320190 
	C187.486023,383.237183 191.329727,385.695160 195.032516,385.265350 
	C196.004303,385.152527 196.941010,384.737427 198.554031,384.154266 
z"/>
<path fill="#000000" opacity="1.000000" stroke="none" 
	d="
M682.071716,379.337189 
	C686.180664,378.626831 689.935974,378.303802 693.642395,379.347717 
	C692.987610,387.217346 685.103210,394.364197 676.249817,395.236847 
	C666.064758,396.240753 657.070007,393.795074 651.869751,384.346710 
	C646.670776,374.900665 647.124939,365.130585 653.152344,355.997833 
	C658.450378,347.970093 670.431580,344.493958 680.430603,347.818665 
	C690.024048,351.008575 696.301331,359.925018 696.150085,369.783386 
	C696.097290,373.229065 694.689453,374.444946 691.312988,374.382019 
	C683.500305,374.236450 675.682739,374.323700 667.867432,374.368713 
	C666.070007,374.379059 664.202820,373.993713 662.224121,375.105469 
	C661.756348,379.547394 664.465820,381.973419 668.091187,383.628754 
	C673.744812,386.210266 678.029480,383.779358 682.071716,379.337189 
M665.288147,365.754822 
	C670.844177,365.754822 676.400208,365.754822 682.320435,365.754822 
	C681.264404,359.935364 677.757507,357.955841 673.436035,357.520721 
	C669.238403,357.098022 665.607361,358.730286 663.251831,362.469086 
	C662.287659,363.999481 662.255249,365.331482 665.288147,365.754822 
z"/>
<path fill="#000000" opacity="1.000000" stroke="none" 
	d="
M520.327393,378.757111 
	C523.403748,379.274536 527.240173,377.137268 528.483337,380.213379 
	C529.637146,383.068390 526.614868,385.665100 524.765076,387.923523 
	C518.994202,394.969269 508.319733,397.443817 498.656677,394.195282 
	C489.427917,391.092743 483.845154,383.114136 483.383820,372.368011 
	C482.852203,359.984650 489.399689,350.552795 500.671204,347.464966 
	C511.571075,344.478912 523.223633,349.170532 528.143433,358.564331 
	C528.758057,359.737915 529.268433,360.985229 529.669556,362.248383 
	C532.789246,372.073547 531.174438,374.333832 521.085510,374.337860 
	C513.129639,374.341034 505.173737,374.338501 497.060181,374.338501 
	C496.519745,379.361542 499.059448,381.801147 502.450775,383.491943 
	C506.562805,385.542084 510.591309,385.080505 514.060669,382.010406 
	C515.803406,380.468231 517.154419,378.439697 520.327393,378.757111 
M497.252686,364.098328 
	C497.117523,365.923035 498.481079,365.810150 499.604523,365.814911 
	C504.094025,365.833984 508.584229,365.817230 513.073120,365.747620 
	C514.351501,365.727844 515.925171,365.979828 516.458191,364.338959 
	C516.926514,362.897339 515.977600,361.807739 515.088318,360.796173 
	C510.275879,355.321960 501.965851,356.583160 497.252686,364.098328 
z"/>
<path fill="#000000" opacity="1.000000" stroke="none" 
	d="
M375.658508,395.266174 
	C364.936829,395.907166 356.280457,392.931946 351.448914,383.242401 
	C346.779663,373.878326 347.495453,364.503693 353.537628,355.874298 
	C359.050964,348.000275 370.106171,344.730591 379.925323,347.702576 
	C389.255585,350.526611 395.437164,358.501740 396.133850,368.289337 
	C396.446899,372.686737 395.066986,374.592041 390.281555,374.423218 
	C381.016754,374.096375 371.732330,374.327728 362.282013,374.327728 
	C361.677917,379.233643 364.201324,381.687164 367.554871,383.408264 
	C371.616760,385.492828 376.052979,385.477997 379.123749,382.108276 
	C383.587799,377.209564 388.571655,378.950623 393.715088,379.131531 
	C392.850098,387.508636 386.457245,393.164429 375.658508,395.266174 
M367.368866,358.693298 
	C364.889282,360.104828 362.746979,361.751129 362.635101,365.680084 
	C369.378418,365.764099 375.795959,366.207581 382.442291,365.484894 
	C380.050446,358.110535 375.613068,356.138031 367.368866,358.693298 
z"/>
<path fill="#000000" opacity="1.000000" stroke="none" 
	d="
M129.024414,367.000000 
	C129.042114,355.845978 129.190536,345.189667 129.006439,334.539093 
	C128.934967,330.404144 130.490891,328.928955 134.548218,328.986115 
	C145.366592,329.138519 156.189804,329.121277 167.008484,328.976440 
	C170.526352,328.929352 171.738983,330.279846 171.527069,333.708160 
	C171.330124,336.894104 172.036392,340.221832 167.004990,340.074799 
	C160.352005,339.880402 153.685806,340.152527 147.031494,339.982056 
	C143.333878,339.887329 142.067245,341.377899 142.129211,345.004547 
	C142.365067,358.808258 140.664368,356.390198 153.251678,356.646057 
	C155.747681,356.696808 158.256714,356.803680 160.740036,356.619202 
	C164.515366,356.338745 166.193161,357.717865 166.153244,361.707184 
	C166.115707,365.458923 164.886871,367.286194 160.937149,367.144806 
	C156.614990,366.990112 152.258301,367.422974 147.960342,367.069244 
	C143.187790,366.676361 141.865097,368.697906 142.093719,373.131378 
	C142.376251,378.609833 141.976669,384.121216 142.185318,389.606445 
	C142.406723,395.427460 138.340225,394.142609 135.013519,394.329529 
	C131.500092,394.526947 128.787994,394.212555 128.952423,389.471741 
	C129.206146,382.155823 129.021179,374.824677 129.024414,367.000000 
z"/>
<path fill="#000000" opacity="1.000000" stroke="none" 
	d="
M539.064941,389.671051 
	C539.070007,377.551117 539.017151,365.900818 539.152771,354.252655 
	C539.180664,351.859039 537.912476,348.171051 541.929321,347.912262 
	C545.673645,347.671021 550.623779,345.576050 552.093994,352.385223 
	C556.945312,348.749939 561.834473,346.355255 567.809692,346.685852 
	C576.328918,347.157288 582.793579,352.204224 584.303894,360.630798 
	C586.107300,370.693329 584.952576,380.887421 585.133179,391.022888 
	C585.173462,393.285461 583.936829,394.343262 581.696106,394.311371 
	C580.365356,394.292419 579.019836,394.206146 577.705200,394.358795 
	C573.421692,394.856110 571.671448,393.163116 571.850525,388.730377 
	C572.112305,382.250977 571.999207,375.750458 571.865540,369.262665 
	C571.701660,361.310669 569.375671,358.354065 563.466431,358.164001 
	C557.168579,357.961426 552.831360,361.995972 552.456970,369.118164 
	C552.108093,375.757202 552.368652,382.427399 552.320801,389.083557 
	C552.302856,391.573578 552.582520,394.764343 548.803467,394.198608 
	C545.340393,393.680176 539.831848,397.306671 539.064941,389.671051 
z"/>
<path fill="#000000" opacity="1.000000" stroke="none" 
	d="
M417.358368,352.979065 
	C422.638580,347.734894 428.806427,345.903778 435.841705,346.985199 
	C444.201660,348.270264 449.705994,354.843079 450.198181,364.897430 
	C450.613098,373.373108 450.247467,381.884766 450.358002,390.378784 
	C450.398529,393.492767 448.905151,394.276825 446.068420,394.376709 
	C437.732666,394.670380 437.609039,394.643311 437.614288,386.472534 
	C437.617920,380.808929 437.708405,375.143219 437.586578,369.482208 
	C437.426849,362.061920 434.640869,358.469208 429.049377,358.137421 
	C422.761078,357.764282 418.563202,361.016174 417.813538,368.205322 
	C417.091431,375.129761 417.169769,382.181671 417.465759,389.153412 
	C417.677032,394.128784 415.078979,394.449127 411.300995,394.383942 
	C407.571106,394.319550 404.452301,394.588470 404.611206,389.109406 
	C404.944244,377.625305 404.625031,366.123657 404.769836,354.631683 
	C404.803101,351.990784 403.266724,348.296692 408.141205,347.720398 
	C414.318817,346.990051 415.731445,347.728363 417.358368,352.979065 
z"/>
<path fill="#000000" opacity="1.000000" stroke="none" 
	d="
M631.392700,377.067627 
	C634.553833,377.321289 637.458557,376.271698 640.238770,378.162781 
	C639.884766,383.752167 636.752930,387.702209 632.618469,390.940460 
	C625.267578,396.698029 612.983948,397.046112 604.298218,391.918640 
	C596.553040,387.346405 592.206055,376.756348 593.918518,366.632019 
	C595.612915,356.614349 602.493835,349.284607 612.208496,347.149078 
	C623.495972,344.667786 635.050720,349.870087 639.174683,359.290100 
	C641.121155,363.736298 640.390808,364.895844 635.528381,365.108124 
	C631.343750,365.290771 627.504333,365.474182 624.735474,360.967987 
	C622.577087,357.455353 618.306213,357.697021 614.677490,358.586487 
	C608.916016,359.998627 605.774841,367.535950 607.421082,375.259705 
	C608.675293,381.143585 613.536377,384.581726 619.512817,383.889862 
	C622.347351,383.561707 624.635559,382.320343 626.077942,379.887451 
	C627.225830,377.951294 628.769897,377.033600 631.392700,377.067627 
z"/>
<path fill="#000000" opacity="1.000000" stroke="none" 
	d="
M227.900818,372.999817 
	C227.897675,366.510254 227.783417,360.517731 227.940979,354.532349 
	C228.017700,351.618073 226.920837,347.722015 232.078400,347.719391 
	C236.255585,347.717285 240.981155,346.778473 240.369568,354.291443 
	C244.298294,351.280548 247.461884,348.365387 251.720016,347.288574 
	C255.418625,346.353241 257.635620,347.032013 257.344543,351.412354 
	C257.245453,352.903259 257.244812,354.411011 257.339111,355.902252 
	C257.520508,358.769775 256.379730,359.972443 253.378967,360.296234 
	C243.547058,361.357056 241.224304,364.107910 241.128616,374.131958 
	C241.079376,379.289124 241.040436,384.448517 241.137283,389.604279 
	C241.199646,392.924988 239.917831,394.311523 236.437714,394.384308 
	C227.956741,394.561676 227.904373,394.647156 227.914383,385.978149 
	C227.919174,381.818695 227.906403,377.659271 227.900818,372.999817 
z"/>
<path fill="#000000" opacity="1.000000" stroke="none" 
	d="
M460.751740,379.992126 
	C460.757874,370.516174 460.951691,361.532990 460.698395,352.562439 
	C460.550751,347.332947 463.774902,347.667236 467.243286,347.683258 
	C470.535156,347.698486 473.504944,347.388550 473.410645,352.359283 
	C473.174194,364.823975 473.194733,377.298828 473.416473,389.764191 
	C473.497162,394.301605 470.978882,394.558197 467.696350,394.322174 
	C464.622894,394.101288 460.534424,395.550964 460.742676,389.965973 
	C460.860291,386.811646 460.756042,383.649048 460.751740,379.992126 
z"/>
<path fill="#000000" opacity="1.000000" stroke="none" 
	d="
M606.661987,419.064026 
	C606.659119,418.241943 606.599915,417.897217 606.665588,417.578186 
	C607.163025,415.160095 605.190369,411.742004 608.603149,410.533630 
	C612.151794,409.277100 615.966370,409.868164 619.161865,411.900818 
	C622.110413,413.776428 622.113831,416.898315 621.293396,419.964050 
	C620.855530,421.600037 620.664734,422.896210 621.709351,424.599731 
	C624.755005,429.566406 622.700012,434.129150 616.975098,435.487885 
	C615.061401,435.942047 613.026550,435.941528 611.041809,436.027771 
	C607.961487,436.161682 606.475342,434.787079 606.610779,431.533234 
	C606.776794,427.546112 606.658752,423.547119 606.661987,419.064026 
M617.084839,426.417786 
	C614.947083,425.077515 612.759521,424.204742 611.571594,427.382599 
	C611.033997,428.820801 611.389038,430.526001 613.397949,430.711273 
	C615.950867,430.946716 618.190796,430.539825 617.084839,426.417786 
M616.681091,417.569702 
	C615.884460,415.092865 614.101624,414.537933 612.191956,415.931732 
	C610.917603,416.861816 610.998901,418.869385 612.220154,419.846893 
	C614.201172,421.432526 615.828918,420.644745 616.681091,417.569702 
z"/>
<path fill="#000000" opacity="1.000000" stroke="none" 
	d="
M530.648682,410.288940 
	C533.038452,409.655273 534.981384,409.937897 536.913940,410.557892 
	C538.425415,411.042694 540.585632,410.949768 540.189209,413.373260 
	C539.840942,415.502258 538.121643,415.575592 536.305725,415.391541 
	C534.668884,415.225616 532.950989,415.040649 531.365540,415.353729 
	C527.914856,416.035187 525.901001,418.384766 525.269653,421.790619 
	C524.669006,425.030670 525.811462,427.754303 528.485352,429.615509 
	C530.790039,431.219757 533.259949,431.509460 535.618896,429.765015 
	C535.492126,429.051392 535.520386,428.681946 535.364990,428.422455 
	C534.454651,426.902557 530.891113,427.202515 532.143860,424.333801 
	C533.257324,421.784210 535.909607,422.901489 537.936279,422.812561 
	C540.644470,422.693695 541.166382,424.593567 541.197754,426.795319 
	C541.253906,430.735199 542.173889,434.898499 536.273132,435.885651 
	C529.403564,437.034851 522.728271,433.831268 520.886414,427.948700 
	C518.433289,420.113831 521.966736,413.502014 530.648682,410.288940 
z"/>
<path fill="#000000" opacity="1.000000" stroke="none" 
	d="
M364.595612,430.073547 
	C361.653229,424.488739 361.966858,419.352844 365.693939,414.830719 
	C368.837006,411.017212 373.133575,409.294861 378.157257,410.330750 
	C379.671051,410.642853 381.954987,410.695099 381.848969,412.892975 
	C381.728546,415.388214 379.541382,415.298218 377.666473,415.159241 
	C374.196259,414.902039 370.954834,415.239227 368.928406,418.579681 
	C367.244293,421.355804 367.083008,424.183960 368.812622,427.046661 
	C370.428741,429.721405 372.748596,431.020538 375.872925,430.788025 
	C377.027740,430.702057 378.206238,430.626038 379.317322,430.331757 
	C381.100250,429.859467 382.268890,430.366425 382.744324,432.153839 
	C383.206818,433.892578 381.894135,434.461365 380.678711,435.047516 
	C375.387146,437.599213 369.610840,435.912323 364.595612,430.073547 
z"/>
<path fill="#000000" opacity="1.000000" stroke="none" 
	d="
M497.702820,427.201324 
	C500.072784,420.377777 501.572662,419.810272 512.914429,421.331512 
	C513.643372,426.613373 513.858032,432.109863 512.931519,437.440887 
	C512.076599,442.360168 503.734192,444.160706 500.121155,440.557098 
	C499.383850,439.821747 498.730530,439.020752 499.398254,437.959473 
	C500.012360,436.983398 500.972900,436.880707 502.026123,437.218964 
	C504.051910,437.869537 506.102417,438.718872 508.487274,436.327972 
	C505.523193,436.055664 502.836182,436.467499 500.728638,434.609039 
	C498.584198,432.718018 497.379639,430.519714 497.702820,427.201324 
M506.808441,424.790924 
	C504.108704,423.909485 502.696625,425.398743 501.962067,427.658752 
	C501.431549,429.291016 502.292450,430.628876 503.780365,431.305450 
	C505.600098,432.132965 507.415771,431.967987 508.630188,430.185760 
	C510.032532,428.127655 509.312622,426.440918 506.808441,424.790924 
z"/>
<path fill="#000000" opacity="1.000000" stroke="none" 
	d="
M639.024536,424.052917 
	C639.076111,420.999084 642.382874,419.149902 642.007263,415.867371 
	C641.916382,415.072968 642.945129,414.578003 643.873535,414.622284 
	C645.118347,414.681671 645.559753,415.589813 645.725159,416.609100 
	C646.051514,418.620514 646.152100,420.745422 649.054932,420.587708 
	C651.667053,420.445709 651.615723,418.469055 651.832947,416.642212 
	C651.961548,415.560791 652.480408,414.714874 653.664490,414.634308 
	C655.089966,414.537323 655.973511,415.442505 655.955811,416.712067 
	C655.918396,419.397308 657.480835,420.869720 661.442017,422.094513 
	C655.284119,424.593079 656.222290,428.746185 656.052185,432.563263 
	C655.991943,433.914368 655.726135,435.360443 653.915710,435.362701 
	C652.095581,435.364990 651.894592,433.955627 651.815979,432.570892 
	C651.759399,431.575256 651.834778,430.569672 651.740051,429.579163 
	C651.533569,427.419952 652.460693,424.388916 648.766663,424.462189 
	C645.512207,424.526703 646.148682,427.263885 645.986694,429.325226 
	C645.921692,430.152863 646.027649,430.998138 645.918701,431.817139 
	C645.708557,433.396545 645.961426,435.583801 643.549194,435.427032 
	C641.520752,435.295288 641.937073,433.326355 641.703979,431.892670 
	C641.278992,429.278778 642.966919,426.084412 639.336304,424.122803 
	C639.000183,424.013641 639.024536,424.052917 639.024536,424.052917 
z"/>
<path fill="#000000" opacity="1.000000" stroke="none" 
	d="
M466.230927,341.829712 
	C462.364655,341.113892 460.074341,339.273376 459.670624,335.580109 
	C459.309906,332.280029 460.365540,329.639587 463.471710,328.133057 
	C466.624481,326.603943 469.670837,327.051605 472.404266,329.115265 
	C474.734833,330.874756 475.727692,333.388885 474.971161,336.201263 
	C473.851746,340.362671 470.654755,341.834106 466.230927,341.829712 
z"/>
<path fill="#000000" opacity="1.000000" stroke="none" 
	d="
M580.723633,431.949738 
	C581.517578,433.496857 581.168518,434.538330 579.944214,435.135284 
	C576.225403,436.948578 572.807495,436.466797 569.964355,433.408203 
	C567.160095,430.391479 567.085632,426.005402 569.891479,422.998535 
	C572.751343,419.933838 576.278625,419.651642 579.884521,421.531464 
	C581.347351,422.294037 582.693665,423.604980 582.437927,425.486969 
	C582.202759,427.217651 580.559814,427.640869 579.139221,428.133575 
	C577.465942,428.713867 575.677063,429.090759 574.523987,430.666626 
	C576.254028,433.033142 578.771545,429.974091 580.723633,431.949738 
z"/>
<path fill="#000000" opacity="1.000000" stroke="none" 
	d="
M663.450562,434.795593 
	C659.689819,431.841614 658.714966,428.460907 660.659424,424.470367 
	C662.337341,421.026642 665.393616,419.979309 668.951904,420.389648 
	C671.421082,420.674438 673.467834,422.061127 673.975952,424.559174 
	C674.542419,427.344452 671.817261,427.364105 670.182129,428.248444 
	C668.818787,428.985779 666.962158,429.036743 666.205933,431.125977 
	C666.893921,431.335327 667.473206,431.652130 668.058350,431.663452 
	C669.867676,431.698517 672.712524,430.286682 672.652039,433.419678 
	C672.600891,436.070770 669.646057,436.071045 667.553833,436.070770 
	C666.297058,436.070618 665.040466,435.389893 663.450562,434.795593 
z"/>
<path fill="#000000" opacity="1.000000" stroke="none" 
	d="
M638.985474,423.995880 
	C639.357361,426.349304 637.717285,427.130554 635.967590,427.886322 
	C634.064880,428.708130 631.838989,428.956787 630.403625,430.801239 
	C631.689636,432.399353 633.182922,431.497986 634.568909,431.384857 
	C635.886353,431.277283 636.926392,431.729706 637.194458,433.079163 
	C637.488831,434.561371 636.315552,435.076416 635.208435,435.498535 
	C631.720642,436.828369 628.575684,436.212158 626.248169,433.294708 
	C623.717957,430.123260 623.274719,426.643494 626.047791,423.305817 
	C628.590454,420.245361 631.879150,419.625488 635.453369,421.113037 
	C636.612305,421.595337 637.489441,422.754944 638.760010,423.828857 
	C639.024536,424.052917 639.000183,424.013641 638.985474,423.995880 
z"/>
<path fill="#000000" opacity="1.000000" stroke="none" 
	d="
M566.438477,423.710022 
	C567.737122,426.584625 565.788574,427.165924 564.115906,427.921722 
	C562.396057,428.698853 560.223511,428.721710 559.242249,430.678284 
	C559.601135,431.564697 560.259644,431.669678 560.917786,431.613464 
	C562.654358,431.465088 565.076904,430.460022 565.334045,433.115356 
	C565.595825,435.819092 562.807861,435.858521 560.999756,436.029510 
	C557.033630,436.404602 554.169067,434.407318 553.042542,430.687103 
	C551.968994,427.141907 552.409058,423.590271 556.069763,421.572937 
	C559.817688,419.507538 563.394470,419.749390 566.438477,423.710022 
z"/>
<path fill="#000000" opacity="1.000000" stroke="none" 
	d="
M440.452820,430.873230 
	C441.351257,431.919891 442.366852,431.785065 443.341705,431.629059 
	C445.068756,431.352631 446.996643,431.095795 447.146454,433.439087 
	C447.267365,435.330536 445.261719,435.604736 443.892975,435.895905 
	C439.984741,436.727325 437.147156,434.981232 435.087585,431.755371 
	C433.060211,428.579865 433.955811,425.671967 436.164703,423.082275 
	C438.629547,420.192474 441.887451,419.862579 445.254242,421.067566 
	C446.998718,421.691925 448.501373,423.024292 448.586578,425.048004 
	C448.666718,426.951080 446.789459,427.169678 445.509430,427.820892 
	C443.773987,428.703796 441.619080,428.813873 440.452820,430.873230 
z"/>
<path fill="#000000" opacity="1.000000" stroke="none" 
	d="
M595.467041,435.343384 
	C593.523438,433.072906 594.239319,430.706879 594.343262,428.430237 
	C594.415588,426.845215 594.359558,425.224091 592.540405,424.807190 
	C590.490784,424.337494 589.459229,425.853271 589.044250,427.538574 
	C588.612244,429.292938 588.540894,431.138092 588.340393,432.946716 
	C588.208618,434.134827 588.095520,435.430969 586.579712,435.511597 
	C585.083618,435.591156 584.665527,434.423706 584.588379,433.170349 
	C584.345825,429.229401 584.097290,425.284821 584.812988,421.179138 
	C587.452026,420.811096 589.864197,421.175598 592.275208,420.622864 
	C595.679871,419.842346 598.160583,421.503540 598.568665,425.201447 
	C598.840332,427.662567 598.854004,430.168488 598.769226,432.647034 
	C598.709595,434.391174 598.229126,436.059235 595.467041,435.343384 
z"/>
<path fill="#000000" opacity="1.000000" stroke="none" 
	d="
M418.038635,423.597534 
	C421.064850,419.205078 425.410248,420.736572 429.105652,420.930542 
	C432.061615,421.085724 432.355652,424.271027 432.426483,426.829437 
	C432.481445,428.812653 432.434448,430.802612 432.336639,432.784821 
	C432.269653,434.142578 432.066833,435.604004 430.189026,435.465363 
	C428.441986,435.336426 428.222382,433.912537 428.140106,432.549042 
	C428.050201,431.059143 428.119598,429.559204 428.016785,428.070709 
	C427.911682,426.549652 427.701630,424.839996 425.756470,424.753937 
	C423.837280,424.669006 422.692596,425.983734 422.442749,427.815308 
	C422.219635,429.451019 422.293762,431.126465 422.219971,432.783630 
	C422.166168,433.991516 421.984192,435.261169 420.530121,435.440674 
	C418.825592,435.651093 418.123871,434.413788 418.067780,432.977173 
	C417.951355,429.994690 418.008911,427.005402 418.038635,423.597534 
z"/>
<path fill="#000000" opacity="1.000000" stroke="none" 
	d="
M389.518555,435.853149 
	C384.787811,434.091492 382.949860,430.917725 383.781738,426.390198 
	C384.423828,422.895630 386.778900,420.981537 390.263000,420.565247 
	C394.140625,420.101959 396.928894,421.595856 398.676788,425.211090 
	C400.669525,429.332703 397.301361,437.046082 389.518555,435.853149 
M392.799194,431.295624 
	C394.914093,429.814056 395.439392,427.927246 393.880310,425.816437 
	C392.934387,424.535736 391.508392,424.051453 389.924255,424.786743 
	C388.457214,425.467682 387.413666,426.676483 387.612183,428.254395 
	C387.927704,430.762146 389.528442,431.964478 392.799194,431.295624 
z"/>
<path fill="#000000" opacity="1.000000" stroke="none" 
	d="
M415.030273,434.189941 
	C412.694611,436.441986 411.630829,435.283447 411.249603,433.046234 
	C411.001373,431.589386 411.170105,430.066254 411.065338,428.578949 
	C410.950104,426.943420 411.057709,424.848969 408.837860,424.747406 
	C406.446625,424.638031 405.382385,426.360748 405.293549,428.652924 
	C405.235779,430.144470 405.265411,431.641083 405.159058,433.128510 
	C405.071991,434.346130 404.694336,435.508453 403.176849,435.481445 
	C401.706055,435.455353 401.177826,434.297546 401.142578,433.102020 
	C401.044891,429.791931 401.014832,426.474152 401.136078,423.165924 
	C401.190887,421.669250 402.157654,420.532532 403.782501,421.014526 
	C405.534698,421.534302 407.042511,420.787598 408.659027,420.603210 
	C413.205292,420.084686 415.108978,421.694366 415.254822,426.336945 
	C415.332794,428.820007 415.193970,431.309937 415.030273,434.189941 
z"/>
<path fill="#000000" opacity="1.000000" stroke="none" 
	d="
M492.446930,420.719696 
	C495.711639,423.576477 497.309509,430.939240 495.726440,434.085205 
	C495.316986,434.898865 494.781799,435.450897 493.852844,435.456512 
	C492.677429,435.463623 491.942413,434.809906 491.859131,433.675354 
	C491.725189,431.851013 491.712646,430.016449 491.687988,428.185699 
	C491.666229,426.568878 491.310394,425.037689 489.515717,424.721466 
	C487.536957,424.372803 486.255249,425.788086 485.821381,427.406616 
	C485.315155,429.294983 485.424988,431.347382 485.255981,433.327637 
	C485.166138,434.380341 484.865875,435.384186 483.641418,435.497955 
	C482.130127,435.638397 481.577454,434.592346 481.535309,433.301880 
	C481.426697,429.976654 481.360535,426.649078 481.348267,423.322174 
	C481.343628,422.068420 481.955566,420.537811 483.247528,420.956909 
	C486.319061,421.953400 489.125305,419.849609 492.446930,420.719696 
z"/>
<path fill="#000000" opacity="1.000000" stroke="none" 
	d="
M691.785889,426.151611 
	C694.137939,427.449249 696.126099,428.768341 695.906250,431.544922 
	C695.751831,433.494232 694.642517,434.952850 692.759155,435.677460 
	C690.773071,436.441559 688.852417,436.291016 687.051819,435.106689 
	C686.287170,434.603668 685.896851,433.876892 686.153564,432.987640 
	C686.833923,430.630646 689.217285,431.821320 690.899353,430.905640 
	C689.667908,429.999359 688.562195,429.300842 687.592346,428.447815 
	C685.566345,426.665924 685.009338,424.446228 686.735779,422.284485 
	C688.559692,420.000854 691.329529,420.062469 693.576294,421.209900 
	C695.828003,422.359863 695.030884,423.830994 692.924805,424.611694 
	C692.341431,424.827942 691.726501,424.958466 691.135254,425.155792 
	C691.113037,425.163177 691.154785,425.476440 691.226013,425.617188 
	C691.298096,425.759491 691.443970,425.864410 691.785889,426.151611 
z"/>
<path fill="#000000" opacity="1.000000" stroke="none" 
	d="
M457.989136,420.490417 
	C459.948395,420.776764 462.137329,420.640320 461.839172,423.016113 
	C461.588776,425.011810 459.731659,424.559784 458.213409,424.496552 
	C455.537659,424.385101 454.112518,425.953735 454.198334,428.476593 
	C454.283020,430.967560 456.101959,431.790344 458.391663,431.638428 
	C459.943146,431.535431 461.749084,431.395905 461.852875,433.417908 
	C461.966980,435.641327 459.846985,435.815918 458.276001,436.038879 
	C454.427734,436.585083 450.384369,433.280121 449.753479,429.246155 
	C449.017334,424.539215 451.731262,421.515930 457.989136,420.490417 
z"/>
<path fill="#000000" opacity="1.000000" stroke="none" 
	d="
M470.669312,420.320862 
	C472.641663,421.064850 474.138763,422.728149 472.411743,423.584930 
	C468.245239,425.651947 469.662964,429.080902 469.351776,432.167877 
	C469.211975,433.554871 469.641174,435.549225 467.351044,435.377411 
	C465.591797,435.245422 465.733215,433.541718 465.662994,432.246338 
	C465.478821,428.850281 466.575378,425.164642 463.231354,423.049530 
	C463.670288,420.672180 465.840851,419.807922 465.658722,417.684906 
	C465.549988,416.417267 465.549194,414.709198 467.377380,414.644165 
	C469.632507,414.563904 469.104065,416.548615 469.411530,417.912109 
	C469.585114,418.681976 470.021179,419.392639 470.669312,420.320862 
z"/>
<path fill="#000000" opacity="1.000000" stroke="none" 
	d="
M543.341919,434.090393 
	C543.099731,432.390778 542.959778,431.079620 542.949036,429.767395 
	C542.877747,421.072754 542.886719,421.072693 552.390076,421.103790 
	C552.429810,421.695007 552.747009,422.626709 552.469849,422.864105 
	C548.907898,425.913574 546.656067,429.355896 546.817139,434.416779 
	C546.872681,436.160278 544.699463,435.910736 543.341919,434.090393 
z"/>
<path fill="#000000" opacity="1.000000" stroke="none" 
	d="
M680.142944,431.830811 
	C679.948853,433.712494 680.001282,435.524628 677.846130,435.361572 
	C675.811035,435.207611 675.919922,433.418671 675.810120,431.939575 
	C675.761047,431.278107 675.793091,430.610718 675.786072,429.946014 
	C675.692749,421.152557 675.692627,421.152557 684.897766,421.284363 
	C685.970947,425.911102 678.182068,426.550507 680.142944,431.830811 
z"/>
<path fill="#000000" opacity="1.000000" stroke="none" 
	d="
M478.915527,429.806030 
	C478.845367,431.242096 478.847839,432.245148 478.694946,433.223938 
	C478.510712,434.403534 478.153931,435.625092 476.630371,435.540527 
	C475.144958,435.458069 474.788727,434.257294 474.773010,433.045868 
	C474.732147,429.893799 474.740448,426.739594 474.815918,423.588318 
	C474.844055,422.413940 475.093323,421.154327 476.630341,421.080566 
	C478.161987,421.007080 478.592773,422.250732 478.705078,423.401825 
	C478.897766,425.376801 478.860199,427.374268 478.915527,429.806030 
z"/>
</svg>